<!DOCTYPE svg PUBLIC "-//W3C//DTD SVG 20010904//EN" "http://www.w3.org/TR/2001/REC-SVG-20010904/DTD/svg10.dtd">
<svg version="1.0" xmlns="http://www.w3.org/2000/svg" width="150px" height="150px" viewBox="0 0 1500 1500" preserveAspectRatio="xMidYMid meet">
<g id="layer101" fill="#e04038" stroke="none">
 <path d="M618 1475 c-31 -21 -48 -25 -93 -23 -54 2 -58 1 -89 -37 -28 -33 -40 -40 -82 -44 -46 -6 -50 -8 -71 -53 -19 -39 -29 -49 -63 -59 -45 -14 -54 -25 -64 -81 -4 -24 -17 -45 -34 -57 -15 -12 -33 -26 -39 -31 -7 -6 -13 -33 -13 -61 0 -41 -6 -57 -32 -90 -31 -39 -31 -39 -18 -92 11 -46 10 -58 -4 -85 -21 -41 -20 -68 5 -103 18 -25 20 -38 14 -87 -6 -57 -6 -58 29 -90 27 -24 36 -41 36 -65 0 -55 10 -72 55 -99 34 -21 46 -36 55 -66 12 -48 24 -58 73 -67 29 -6 43 -17 65 -49 26 -38 31 -41 78 -44 42 -2 57 -9 87 -37 40 -38 56 -41 106 -24 28 10 38 9 71 -10 47 -26 70 -26 114 0 30 18 41 19 67 10 50 -17 71 -13 106 21 28 27 39 31 78 30 39 -2 50 2 68 24 48 59 67 74 89 74 36 0 65 26 72 64 7 37 19 50 69 75 29 14 33 22 37 69 5 45 11 58 43 87 40 37 42 43 27 94 -8 29 -6 41 18 82 25 45 26 51 13 81 -16 36 -18 75 -7 128 7 30 3 41 -23 74 -28 35 -31 44 -25 83 6 42 5 45 -40 85 -29 26 -46 50 -46 64 0 47 -18 73 -60 85 -34 10 -46 21 -65 60 -26 50 -39 59 -87 59 -23 0 -40 10 -68 42 -37 40 -39 41 -88 35 -46 -5 -54 -3 -89 24 -39 31 -50 32 -110 8 -28 -11 -37 -11 -68 4 -47 22 -54 22 -97 -8z"/>
 </g>
</svg>